<?xml version="1.0" encoding="UTF-8"?>
<svg version="1.1" xmlns="http://www.w3.org/2000/svg" width="96" height="96">
<path d="M0 0 C9.50385263 8.8136287 12.49002147 18.48238853 13.03515625 31.3203125 C12.49547515 41.87107797 7.91868581 52.19158897 0.03515625 59.3203125 C-8.89102273 66.50006516 -19.02711822 69.86794229 -30.52734375 69.3203125 C-33.93688314 68.79878756 -35.10096986 68.22307956 -38.02734375 66.1328125 C-40.22648582 62.9405095 -40.96484375 61.19466446 -40.96484375 57.3203125 C-39.59906477 54.0034207 -37.95316388 51.30279269 -35.96484375 48.3203125 C-36.04731221 44.44429503 -36.54401836 42.78923222 -39.15234375 39.8828125 C-41.875002 38.06143943 -41.875002 38.06143943 -45.02734375 38.3828125 C-47.95065521 39.1386485 -47.95065521 39.1386485 -49.96484375 40.8203125 C-52.67813915 42.85528405 -54.58657041 43.18518157 -57.96484375 43.3203125 C-61.93956438 41.79157379 -63.5833804 40.89250753 -65.96484375 37.3203125 C-68.40096515 26.64167506 -65.82619826 16.42534768 -60.19921875 7.20703125 C-59.791875 6.58441406 -59.38453125 5.96179688 -58.96484375 5.3203125 C-58.40796875 4.4540625 -57.85109375 3.5878125 -57.27734375 2.6953125 C-41.30169584 -13.71210968 -17.41678739 -14.88910254 0 0 Z M-53.23828125 9.93359375 C-57.94587854 16.44115471 -60.14754176 23.25349249 -59.96484375 31.3203125 C-59.1922158 34.31626207 -59.1922158 34.31626207 -57.96484375 36.3203125 C-57.46984375 36.0521875 -56.97484375 35.7840625 -56.46484375 35.5078125 C-49.81362921 32.34848559 -45.33810818 30.5364582 -37.96484375 32.3203125 C-33.92673092 34.2250827 -31.79102753 36.02655105 -30.02734375 40.0703125 C-28.62543757 44.55975015 -28.859103 47.74991738 -29.96484375 52.3203125 C-31.26273331 54.34349328 -32.58949036 56.34897264 -33.96484375 58.3203125 C-33.63484375 59.3103125 -33.30484375 60.3003125 -32.96484375 61.3203125 C-23.04043129 63.12475113 -15.28079073 61.03181455 -6.96484375 55.3203125 C0.49742992 49.58125464 4.71341876 41.50209077 5.97265625 32.1953125 C6.46624574 22.72736858 3.36788809 14.67810529 -2.56640625 7.33984375 C-9.04176403 0.40618439 -17.00163012 -2.96551174 -26.40234375 -3.9296875 C-37.66408668 -2.83098087 -45.94612637 1.14523976 -53.23828125 9.93359375 Z " fill="#000000" transform="translate(74.96484375,18.6796875)"/>
<path d="M0 0 C0.70125 0.00515625 1.4025 0.0103125 2.125 0.015625 C2.82625 0.01046875 3.5275 0.0053125 4.25 0 C6.125 0.265625 6.125 0.265625 8.125 2.265625 C8.390625 4.140625 8.390625 4.140625 8.375 6.265625 C8.38015625 6.966875 8.3853125 7.668125 8.390625 8.390625 C8.125 10.265625 8.125 10.265625 6.125 12.265625 C4.25 12.53125 4.25 12.53125 2.125 12.515625 C1.42375 12.52078125 0.7225 12.5259375 0 12.53125 C-1.875 12.265625 -1.875 12.265625 -3.875 10.265625 C-4.140625 8.390625 -4.140625 8.390625 -4.125 6.265625 C-4.13015625 5.564375 -4.1353125 4.863125 -4.140625 4.140625 C-3.75603481 1.4258707 -2.7147543 0.38459019 0 0 Z " fill="#000000" transform="translate(54.875,62.734375)"/>
<path d="M0 0 C0.70125 0.00515625 1.4025 0.0103125 2.125 0.015625 C2.82625 0.01046875 3.5275 0.0053125 4.25 0 C6.125 0.265625 6.125 0.265625 8.125 2.265625 C8.390625 4.140625 8.390625 4.140625 8.375 6.265625 C8.38015625 6.966875 8.3853125 7.668125 8.390625 8.390625 C8.125 10.265625 8.125 10.265625 6.125 12.265625 C4.25 12.53125 4.25 12.53125 2.125 12.515625 C1.42375 12.52078125 0.7225 12.5259375 0 12.53125 C-1.875 12.265625 -1.875 12.265625 -3.875 10.265625 C-4.140625 8.390625 -4.140625 8.390625 -4.125 6.265625 C-4.13015625 5.564375 -4.1353125 4.863125 -4.140625 4.140625 C-3.75603481 1.4258707 -2.7147543 0.38459019 0 0 Z " fill="#000000" transform="translate(66.875,47.734375)"/>
<path d="M0 0 C0.70125 0.00515625 1.4025 0.0103125 2.125 0.015625 C2.82625 0.01046875 3.5275 0.0053125 4.25 0 C6.125 0.265625 6.125 0.265625 8.125 2.265625 C8.390625 4.140625 8.390625 4.140625 8.375 6.265625 C8.38015625 6.966875 8.3853125 7.668125 8.390625 8.390625 C8.125 10.265625 8.125 10.265625 6.125 12.265625 C4.25 12.53125 4.25 12.53125 2.125 12.515625 C1.42375 12.52078125 0.7225 12.5259375 0 12.53125 C-1.875 12.265625 -1.875 12.265625 -3.875 10.265625 C-4.140625 8.390625 -4.140625 8.390625 -4.125 6.265625 C-4.13015625 5.564375 -4.1353125 4.863125 -4.140625 4.140625 C-3.75603481 1.4258707 -2.7147543 0.38459019 0 0 Z " fill="#000000" transform="translate(24.875,32.734375)"/>
<path d="M0 0 C0.70125 0.00515625 1.4025 0.0103125 2.125 0.015625 C2.82625 0.01046875 3.5275 0.0053125 4.25 0 C6.125 0.265625 6.125 0.265625 8.125 2.265625 C8.390625 4.140625 8.390625 4.140625 8.375 6.265625 C8.38015625 6.966875 8.3853125 7.668125 8.390625 8.390625 C8.125 10.265625 8.125 10.265625 6.125 12.265625 C4.25 12.53125 4.25 12.53125 2.125 12.515625 C1.42375 12.52078125 0.7225 12.5259375 0 12.53125 C-1.875 12.265625 -1.875 12.265625 -3.875 10.265625 C-4.140625 8.390625 -4.140625 8.390625 -4.125 6.265625 C-4.13015625 5.564375 -4.1353125 4.863125 -4.140625 4.140625 C-3.75603481 1.4258707 -2.7147543 0.38459019 0 0 Z " fill="#000000" transform="translate(60.875,26.734375)"/>
<path d="M0 0 C0.70125 0.00515625 1.4025 0.0103125 2.125 0.015625 C2.82625 0.01046875 3.5275 0.0053125 4.25 0 C6.125 0.265625 6.125 0.265625 8.125 2.265625 C8.390625 4.140625 8.390625 4.140625 8.375 6.265625 C8.38015625 6.966875 8.3853125 7.668125 8.390625 8.390625 C8.125 10.265625 8.125 10.265625 6.125 12.265625 C4.25 12.53125 4.25 12.53125 2.125 12.515625 C1.42375 12.52078125 0.7225 12.5259375 0 12.53125 C-1.875 12.265625 -1.875 12.265625 -3.875 10.265625 C-4.140625 8.390625 -4.140625 8.390625 -4.125 6.265625 C-4.13015625 5.564375 -4.1353125 4.863125 -4.140625 4.140625 C-3.75603481 1.4258707 -2.7147543 0.38459019 0 0 Z " fill="#000000" transform="translate(39.875,20.734375)"/>
</svg>
