<svg width="25" height="24" viewBox="0 0 25 24" fill="none" xmlns="http://www.w3.org/2000/svg">
<path d="M6.375 14.3388L10.4273 9.39891H6.55362V8H12.18V9.48634L8.17231 14.4262H12.2246V15.8251H6.375V14.3388ZM18.375 14.459C18.1368 14.9107 17.8019 15.2823 17.3703 15.5738C16.9461 15.8579 16.414 16 15.7739 16C15.3497 16 14.959 15.9308 14.6018 15.7923C14.252 15.6466 13.9468 15.4463 13.6864 15.1913C13.4333 14.9362 13.2324 14.6375 13.0835 14.2951C12.9421 13.9454 12.8714 13.5628 12.8714 13.1475C12.8714 12.7322 12.9421 12.3497 13.0835 12C13.2324 11.6503 13.4333 11.3515 13.6864 11.1038C13.9468 10.8488 14.252 10.6521 14.6018 10.5137C14.959 10.3679 15.3497 10.2951 15.7739 10.2951C16.4065 10.2951 16.9386 10.4372 17.3703 10.7213C17.8019 11.0055 18.1182 11.3734 18.3192 11.8251L16.9796 12.3716C16.8531 12.1239 16.6893 11.9381 16.4884 11.8142C16.2949 11.6831 16.0493 11.6175 15.7516 11.6175C15.5581 11.6175 15.3758 11.6539 15.2046 11.7268C15.0334 11.7996 14.8808 11.9016 14.7469 12.0328C14.6204 12.1639 14.5199 12.3242 14.4455 12.5137C14.371 12.7031 14.3338 12.9144 14.3338 13.1475C14.3338 13.3807 14.371 13.592 14.4455 13.7814C14.5199 13.9709 14.6204 14.1311 14.7469 14.2623C14.8808 14.3934 15.0334 14.4954 15.2046 14.5683C15.3758 14.6412 15.5581 14.6776 15.7516 14.6776C16.0567 14.6776 16.3135 14.612 16.5219 14.4809C16.7377 14.3424 16.9089 14.1457 17.0354 13.8907L18.375 14.459Z" fill="#198754"/>
<path d="M2.625 12C2.625 7.286 2.625 4.929 4.089 3.464C5.555 2 7.911 2 12.625 2C17.339 2 19.696 2 21.16 3.464C22.625 4.93 22.625 7.286 22.625 12C22.625 16.714 22.625 19.071 21.16 20.535C19.697 22 17.339 22 12.625 22C7.911 22 5.554 22 4.089 20.535C2.625 19.072 2.625 16.714 2.625 12Z" stroke="#198754" stroke-width="1.6"/>
</svg>
