<svg width="25" height="24" viewBox="0 0 25 24" fill="none" xmlns="http://www.w3.org/2000/svg">
<path d="M2.125 12C2.125 7.286 2.125 4.929 3.589 3.464C5.055 2 7.411 2 12.125 2C16.839 2 19.196 2 20.66 3.464C22.125 4.93 22.125 7.286 22.125 12C22.125 16.714 22.125 19.071 20.66 20.535C19.197 22 16.839 22 12.125 22C7.411 22 5.054 22 3.589 20.535C2.125 19.072 2.125 16.714 2.125 12Z" stroke="#0288D1" stroke-width="1.6"/>
<path d="M6.125 14.3388L9.96051 9.39891H6.29406V8H11.6194V9.48634L7.82615 14.4262H11.6617V15.8251H6.125V14.3388ZM12.6729 8H14.057V10.3497L13.9725 11.1148H14.057C14.1838 10.8889 14.3811 10.6958 14.6487 10.5355C14.9164 10.3752 15.2475 10.2951 15.642 10.2951C15.973 10.2951 16.2865 10.3679 16.5823 10.5137C16.8852 10.6521 17.1494 10.8488 17.3748 11.1038C17.6073 11.3515 17.7904 11.6503 17.9242 12C18.0581 12.3497 18.125 12.7322 18.125 13.1475C18.125 13.5628 18.0581 13.9454 17.9242 14.2951C17.7904 14.6448 17.6073 14.9472 17.3748 15.2022C17.1494 15.4499 16.8852 15.6466 16.5823 15.7923C16.2865 15.9308 15.973 16 15.642 16C15.2475 16 14.9164 15.9199 14.6487 15.7596C14.3811 15.5993 14.1838 15.4062 14.057 15.1803H13.9725V15.8251H12.6729V8ZM15.3567 14.6776C15.5398 14.6776 15.7124 14.6412 15.8744 14.5683C16.0435 14.4954 16.1914 14.3934 16.3182 14.2623C16.445 14.1311 16.5471 13.9709 16.6246 13.7814C16.7021 13.592 16.7408 13.3807 16.7408 13.1475C16.7408 12.9144 16.7021 12.7031 16.6246 12.5137C16.5471 12.3242 16.445 12.1639 16.3182 12.0328C16.1914 11.9016 16.0435 11.7996 15.8744 11.7268C15.7124 11.6539 15.5398 11.6175 15.3567 11.6175C15.1735 11.6175 14.9974 11.6539 14.8284 11.7268C14.6663 11.7923 14.5219 11.8907 14.3952 12.0219C14.2684 12.153 14.1662 12.3133 14.0887 12.5027C14.0112 12.6922 13.9725 12.9071 13.9725 13.1475C13.9725 13.388 14.0112 13.6029 14.0887 13.7923C14.1662 13.9818 14.2684 14.1421 14.3952 14.2732C14.5219 14.4044 14.6663 14.5064 14.8284 14.5792C14.9974 14.6448 15.1735 14.6776 15.3567 14.6776Z" fill="#0288D1"/>
</svg>
