<?xml version="1.0" encoding="UTF-8"?>
<svg version="1.1" xmlns="http://www.w3.org/2000/svg" width="200" height="200">
<path d="M0 0 C0.83699432 -0.00335861 1.67398865 -0.00671722 2.53634644 -0.01017761 C5.28254717 -0.01961624 8.02868643 -0.02162739 10.77490234 -0.02270508 C12.70291162 -0.02592346 14.63092066 -0.02928796 16.55892944 -0.03279114 C20.59528163 -0.03876535 24.63161246 -0.04063288 28.66796875 -0.04003906 C33.80509388 -0.03993774 38.94207987 -0.05356649 44.07917213 -0.07081127 C48.06180431 -0.08200833 52.04440372 -0.08395589 56.02705002 -0.08342934 C57.91900485 -0.08459877 59.81096082 -0.08896133 61.70289993 -0.0967617 C82.04493912 -0.17275747 103.41986821 0.55912285 119.29833984 15.02416992 C138.09817022 35.08002345 134.58052395 68.5166168 134.49658203 93.96069336 C134.48518843 97.44611879 134.49196796 100.93123861 134.50346661 104.41665363 C134.67257816 164.95650827 134.67257816 164.95650827 117.54833984 182.95385742 C98.33796577 201.15828285 64.83128571 197.33431214 40.43066406 197.33056641 C37.64837087 197.3304855 34.86624358 197.33738466 32.08398438 197.35107422 C-30.8869049 197.65573077 -30.8869049 197.65573077 -48.07275391 181.98510742 C-63.01129363 165.73556421 -63.0830804 143.18371276 -63.06494141 122.41479492 C-63.06884163 120.52975879 -63.07317895 118.64472352 -63.07792664 116.75968933 C-63.08534124 112.82723125 -63.08513311 108.894863 -63.07983398 104.96240234 C-63.07405574 99.97831111 -63.09095412 94.99459349 -63.11417866 90.01056385 C-63.12907336 86.12123037 -63.12976642 82.23198353 -63.12666893 78.34262657 C-63.12717461 76.50783234 -63.13226669 74.67303224 -63.14248085 72.83826637 C-63.24411978 52.02738391 -62.343499 29.89399136 -46.88525391 14.24291992 C-34.36340895 2.65224934 -16.55466091 -0.0097167 0 0 Z " fill="#FDFEFE" transform="translate(62.76416015625,-0.145263671875)"/>
<path d="M0 0 C0.83699432 -0.00335861 1.67398865 -0.00671722 2.53634644 -0.01017761 C5.28254717 -0.01961624 8.02868643 -0.02162739 10.77490234 -0.02270508 C12.70291162 -0.02592346 14.63092066 -0.02928796 16.55892944 -0.03279114 C20.59528163 -0.03876535 24.63161246 -0.04063288 28.66796875 -0.04003906 C33.80509388 -0.03993774 38.94207987 -0.05356649 44.07917213 -0.07081127 C48.06180431 -0.08200833 52.04440372 -0.08395589 56.02705002 -0.08342934 C57.91900485 -0.08459877 59.81096082 -0.08896133 61.70289993 -0.0967617 C82.04493912 -0.17275747 103.41986821 0.55912285 119.29833984 15.02416992 C138.09817022 35.08002345 134.58052395 68.5166168 134.49658203 93.96069336 C134.48518843 97.44611879 134.49196796 100.93123861 134.50346661 104.41665363 C134.67257816 164.95650827 134.67257816 164.95650827 117.54833984 182.95385742 C98.33796577 201.15828285 64.83128571 197.33431214 40.43066406 197.33056641 C37.64837087 197.3304855 34.86624358 197.33738466 32.08398438 197.35107422 C-30.8869049 197.65573077 -30.8869049 197.65573077 -48.07275391 181.98510742 C-63.01129363 165.73556421 -63.0830804 143.18371276 -63.06494141 122.41479492 C-63.06884163 120.52975879 -63.07317895 118.64472352 -63.07792664 116.75968933 C-63.08534124 112.82723125 -63.08513311 108.894863 -63.07983398 104.96240234 C-63.07405574 99.97831111 -63.09095412 94.99459349 -63.11417866 90.01056385 C-63.12907336 86.12123037 -63.12976642 82.23198353 -63.12666893 78.34262657 C-63.12717461 76.50783234 -63.13226669 74.67303224 -63.14248085 72.83826637 C-63.24411978 52.02738391 -62.343499 29.89399136 -46.88525391 14.24291992 C-34.36340895 2.65224934 -16.55466091 -0.0097167 0 0 Z M-39.76416016 28.14526367 C-46.86565103 37.353313 -47.91580816 49.78191797 -47.90942383 60.99536133 C-47.91278244 61.85332306 -47.91614105 62.71128479 -47.91960144 63.59524536 C-47.92905772 66.4166206 -47.93105214 69.2379361 -47.93212891 72.05932617 C-47.93534612 74.03600081 -47.93871054 76.01267521 -47.94221497 77.98934937 C-47.94819362 82.13003083 -47.95005626 86.27069147 -47.94946289 90.41137695 C-47.94936156 95.68651124 -47.96298952 100.96151005 -47.9802351 106.23661232 C-47.99142143 110.32043049 -47.99338004 114.40421664 -47.99285316 118.48804855 C-47.99402424 120.43106934 -47.99839629 122.37409119 -48.00618553 124.31709671 C-48.39863755 148.58754329 -48.39863755 148.58754329 -38.38916016 170.08276367 C-37.52291016 170.76338867 -36.65666016 171.44401367 -35.76416016 172.14526367 C-34.83603516 172.99088867 -33.90791016 173.83651367 -32.95166016 174.70776367 C-29.30931172 177.22877777 -25.32198539 178.31302375 -21.07666016 179.39526367 C-20.44203857 179.55841064 -19.80741699 179.72155762 -19.15356445 179.88964844 C-7.64359146 182.57860023 4.28319865 182.30760234 16.03271484 182.31323242 C17.63633248 182.31645672 19.23994983 182.31982161 20.84356689 182.32331848 C24.18852417 182.3292674 27.53345578 182.33116278 30.87841797 182.33056641 C35.11844067 182.33046501 39.35829508 182.34411287 43.59827805 182.36133862 C46.9067253 182.37257644 50.21513335 182.37448204 53.52359772 182.37395668 C55.0845523 182.37511931 56.6455085 182.3794416 58.20644379 182.38728905 C84.95832528 182.65300216 84.95832528 182.65300216 108.23583984 171.14526367 C120.26470004 157.6718897 119.55364501 136.69120203 119.53662109 119.63745117 C119.54052414 117.97901302 119.544862 116.32057585 119.54960632 114.66213989 C119.55701272 111.20465847 119.55681937 107.74727924 119.55151367 104.28979492 C119.54688826 100.78738545 119.55378384 97.28532362 119.57202148 93.78295898 C121.52270422 57.51974677 121.52270422 57.51974677 108.23583984 25.14526367 C97.39429443 16.73585202 83.8203475 14.99231921 70.46166992 15 C69.61185547 14.99664139 68.76204102 14.99328278 67.88647461 14.98982239 C65.09275832 14.98036813 62.29910236 14.97837188 59.50537109 14.97729492 C57.54872107 14.97407785 55.59207128 14.97071345 53.63542175 14.96720886 C49.53762251 14.96123093 45.43984431 14.95936752 41.34204102 14.95996094 C36.11837383 14.96006233 30.89484327 14.94642749 25.67120838 14.92918873 C21.62946465 14.91801028 17.58775331 14.91604354 13.54599571 14.91657066 C11.62168598 14.91539868 9.69737518 14.91102132 7.77308083 14.9032383 C-18.34608332 14.68108497 -18.34608332 14.68108497 -39.76416016 28.14526367 Z " fill="#236EB4" transform="translate(62.76416015625,-0.145263671875)"/>
<path d="M0 0 C1.16257324 0.01047363 2.32514648 0.02094727 3.52294922 0.03173828 C5.40820312 0.04140625 5.40820312 0.04140625 7.33154297 0.05126953 C9.30960938 0.07640625 9.30960938 0.07640625 11.32763672 0.10205078 C12.66747393 0.11208096 14.00731823 0.12120674 15.34716797 0.12939453 C18.63250244 0.15303003 21.91748137 0.18597844 25.20263672 0.22705078 C26.07222093 2.6219514 26.40080024 3.76575532 25.37670898 6.14968872 C24.70466431 7.15502151 24.70466431 7.15502151 24.01904297 8.18066406 C23.25799255 9.33869034 23.25799255 9.33869034 22.48156738 10.52011108 C21.91514526 11.35410431 21.34872314 12.18809753 20.76513672 13.04736328 C20.18292358 13.92735992 19.60071045 14.80735657 19.00085449 15.71401978 C15.76052776 20.59721546 12.46442674 25.44271385 9.17724609 30.29443359 C7.82066857 32.300309 6.4645506 34.30649528 5.10888672 36.31298828 C4.43031616 37.31438843 3.75174561 38.31578857 3.0526123 39.34753418 C-1.18858142 45.66038301 -5.09735594 52.079135 -8.82861328 58.70361328 C-21.84063422 81.3225951 -21.84063422 81.3225951 -29.60546875 83.64404297 C-38.01715204 85.35482475 -46.51722542 84.17190195 -54.79736328 82.22705078 C-55.66237628 79.84200681 -56.00640766 78.70190089 -54.96470642 76.33564758 C-54.28813744 75.35243782 -54.28813744 75.35243782 -53.59790039 74.34936523 C-53.08748199 73.59416595 -52.5770636 72.83896667 -52.05117798 72.06088257 C-51.19657486 70.83796005 -51.19657486 70.83796005 -50.32470703 69.59033203 C-49.73853607 68.72993317 -49.15236511 67.8695343 -48.5484314 66.98306274 C-46.62202564 64.16052942 -44.67851208 61.35023118 -42.73486328 58.53955078 C-41.40887304 56.60306584 -40.08425518 54.6656405 -38.76098633 52.72729492 C-36.74625645 49.77658781 -34.73057149 46.82658466 -32.71009827 43.87980652 C-25.93597726 33.99750455 -19.30600294 24.02179106 -12.69723511 14.0284729 C-11.39527116 12.06084622 -10.09064327 10.09500914 -8.78564453 8.12939453 C-8.05901611 7.03103271 -7.3323877 5.9326709 -6.58374023 4.80102539 C-3.4458636 0.27968696 -3.4458636 0.27968696 0 0 Z " fill="#246EB4" transform="translate(114.79736328125,58.77294921875)"/>
<path d="M0 0 C4.9710149 2.53240382 8.49430567 5.98861134 11 11 C11.37381854 16.60727817 11.18490827 20.16772538 8 25 C3.57963902 28.97832488 0.25130291 31.48533004 -5.875 31.31640625 C-10.72323507 30.59451831 -14.07101294 28.00232814 -17.375 24.4375 C-20.20204724 20.19692914 -20.68139328 15.98742024 -20 11 C-15.52702891 2.38538902 -9.42771219 -1.14468006 0 0 Z " fill="#266FB5" transform="translate(79,59)"/>
<path d="M0 0 C1.12019531 -0.00128906 2.24039063 -0.00257812 3.39453125 -0.00390625 C4.57402344 -0.00003906 5.75351563 0.00382812 6.96875 0.0078125 C8.73798828 0.00201172 8.73798828 0.00201172 10.54296875 -0.00390625 C12.22326172 -0.00197266 12.22326172 -0.00197266 13.9375 0 C14.97326172 0.00112793 16.00902344 0.00225586 17.07617188 0.00341797 C19.46875 0.1328125 19.46875 0.1328125 20.46875 1.1328125 C20.56834621 2.97440273 20.59955411 4.81978217 20.6015625 6.6640625 C20.60349609 8.34435547 20.60349609 8.34435547 20.60546875 10.05859375 C20.60160156 11.23808594 20.59773438 12.41757813 20.59375 13.6328125 C20.59955078 15.40205078 20.59955078 15.40205078 20.60546875 17.20703125 C20.60417969 18.32722656 20.60289062 19.44742188 20.6015625 20.6015625 C20.60043457 21.63732422 20.59930664 22.67308594 20.59814453 23.74023438 C20.46875 26.1328125 20.46875 26.1328125 19.46875 27.1328125 C17.62715977 27.23240871 15.78178033 27.26361661 13.9375 27.265625 C12.81730469 27.26691406 11.69710937 27.26820313 10.54296875 27.26953125 C9.36347656 27.26566406 8.18398437 27.26179688 6.96875 27.2578125 C5.19951172 27.26361328 5.19951172 27.26361328 3.39453125 27.26953125 C1.71423828 27.26759766 1.71423828 27.26759766 0 27.265625 C-1.03576172 27.26449707 -2.07152344 27.26336914 -3.13867188 27.26220703 C-5.53125 27.1328125 -5.53125 27.1328125 -6.53125 26.1328125 C-6.63084621 24.29122227 -6.66205411 22.44584283 -6.6640625 20.6015625 C-6.66535156 19.48136719 -6.66664062 18.36117187 -6.66796875 17.20703125 C-6.66410156 16.02753906 -6.66023438 14.84804687 -6.65625 13.6328125 C-6.66011719 12.45332031 -6.66398437 11.27382812 -6.66796875 10.05859375 C-6.66667969 8.93839844 -6.66539063 7.81820312 -6.6640625 6.6640625 C-6.66293457 5.62830078 -6.66180664 4.59253906 -6.66064453 3.52539062 C-6.41664411 -0.98631532 -3.94948587 0.00430093 0 0 Z " fill="#236DB4" transform="translate(120.53125,113.8671875)"/>
</svg>
