<svg width="200" height="200" viewBox="0 0 200 200" fill="none" xmlns="http://www.w3.org/2000/svg">
<rect x="10" y="10" width="180" height="180" rx="44" fill="white"/>
<path d="M181.818 98.18C181.818 76.5499 181.804 61.0601 180.22 49.2809C178.664 37.7114 175.708 30.8075 170.624 25.7191C165.546 20.6443 158.655 17.6948 147.088 16.1399C135.308 14.5565 119.813 14.5419 98.18 14.5419C76.5473 14.5419 61.0522 14.5565 49.272 16.1399C37.7038 17.6953 30.8068 20.6473 25.7191 25.728C20.6436 30.8102 17.6946 37.7046 16.1399 49.272C14.5565 61.0534 14.5419 76.5473 14.5419 98.18C14.5419 119.812 14.5568 135.307 16.1399 147.088C17.6951 158.659 20.645 165.551 25.7191 170.624C30.802 175.706 37.7012 178.664 49.272 180.22C61.053 181.805 76.5471 181.818 98.18 181.818C119.812 181.818 135.307 181.805 147.088 180.22C158.66 178.664 165.551 175.711 170.624 170.632L170.632 170.624C175.712 165.545 178.665 158.655 180.22 147.088C181.805 135.308 181.818 119.813 181.818 98.18ZM196.36 98.18C196.36 119.401 196.374 136.049 194.629 149.024C192.966 161.383 189.604 171.36 182.405 179.341L180.913 180.913C172.685 189.149 162.206 192.856 149.024 194.629C136.048 196.374 119.399 196.36 98.18 196.36C76.9594 196.36 60.3123 196.374 47.3366 194.629C34.9756 192.966 24.9947 189.604 17.01 182.405L15.4385 180.913C7.20637 172.685 3.49405 162.206 1.72231 149.024C-0.0209896 136.048 1.21192e-05 119.399 1.21192e-05 98.18C1.21192e-05 76.9594 -0.0212901 60.3118 1.72231 47.3366C3.49429 34.1521 7.20882 23.674 15.4385 15.4385C23.6772 7.21163 34.1536 3.4944 47.3366 1.72232C60.311 -0.0215778 76.9583 1.26054e-05 98.18 1.26054e-05C119.401 1.26054e-05 136.049 -0.0214439 149.024 1.72232C161.382 3.38346 171.36 6.75151 179.341 13.9471L180.913 15.4385C189.145 23.6771 192.855 34.1524 194.629 47.3366C196.374 60.3115 196.36 76.9585 196.36 98.18Z" fill="#5A4CA6"/>
<path d="M54.2 119.4L90.5 74.2H55.8V61.4H106.2V75L70.3 120.2H106.6V133H54.2V119.4ZM119.617 95.2H111.017V84H119.617V69H132.717V84H144.717V95.2H132.717V114.2C132.717 115.333 132.817 116.4 133.017 117.4C133.284 118.333 133.751 119.133 134.417 119.8C135.351 120.867 136.684 121.4 138.417 121.4C139.551 121.4 140.451 121.3 141.117 121.1C141.784 120.833 142.417 120.5 143.017 120.1L146.717 131.6C145.184 132.333 143.517 132.867 141.717 133.2C139.984 133.6 138.051 133.8 135.917 133.8C133.451 133.8 131.217 133.433 129.217 132.7C127.284 131.9 125.651 130.833 124.317 129.5C121.184 126.5 119.617 122.233 119.617 116.7V95.2Z" fill="#5A4CA6"/>
</svg>
